<?xml version="1.0" encoding="UTF-8"?>
<svg width="1500px" height="1000px" viewBox="0 0 1500 1000" version="1.1" xmlns="http://www.w3.org/2000/svg" xmlns:xlink="http://www.w3.org/1999/xlink">
    <!-- Generator: Sketch 46.2 (44496) - http://www.bohemiancoding.com/sketch -->
    <title>Logo</title>
    <desc>Created with Sketch.</desc>
    <defs></defs>
    <g id="Page-1" stroke="none" stroke-width="1" fill="none" fill-rule="evenodd">
        <g id="Logo">
            <g id="koru-logo" transform="translate(400.000000, 410.000000)" fill-rule="nonzero">
                <path d="M699.793814,11.9587629 L699.793814,6.59793814 C699.793814,3.29896907 697.628866,1.95876289 695.979381,1.54639175 C695.154639,1.34020619 694.226804,1.2371134 693.71134,1.2371134 L691.030928,1.2371134 L670.927835,1.2371134 L666.391753,1.2371134 C665.051546,1.2371134 664.329897,1.34020619 664.020619,1.44329897 C662.474227,1.8556701 660,2.98969072 660,6.59793814 L660,103.71134 C660,129.175258 644.43299,144.43299 620.721649,144.43299 C597.113402,144.43299 580.412371,129.072165 580.412371,103.71134 L580.412371,10.5154639 L580.412371,6.70103093 C580.412371,3.40206186 578.14433,2.06185567 576.597938,1.44329897 C575.773196,1.13402062 574.948454,1.13402062 574.536082,1.13402062 L571.443299,1.13402062 L550.309278,1.13402062 L546.804124,1.13402062 C540.721649,1.13402062 540.721649,6.49484536 540.721649,6.49484536 L540.721649,10.1030928 L540.721649,103.505155 C540.721649,150.103093 571.958763,178.969072 620.721649,178.969072 C669.278351,178.969072 699.690722,150 699.690722,103.505155 L699.793814,11.9587629 L699.793814,11.9587629 Z" id="Shape" fill="#2EB4D2"></path>
                <path d="M513.402062,168.969072 L511.443299,165.979381 L481.237113,119.175258 C502.57732,109.072165 514.226804,89.4845361 514.226804,62.2680412 C514.226804,23.2989691 488.041237,1.13402062 442.061856,1.13402062 L379.484536,1.13402062 C379.484536,1.13402062 375.773196,1.13402062 371.030928,1.13402062 C367.731959,1.13402062 366.494845,3.40206186 365.979381,4.84536082 C365.979381,4.94845361 365.670103,5.97938144 365.670103,7.62886598 L365.670103,10.8247423 L365.670103,159.381443 L365.670103,171.340206 C365.670103,174.43299 368.041237,177.113402 371.443299,177.113402 L399.587629,177.113402 C402.680412,177.113402 405.360825,174.43299 405.360825,171.340206 L405.360825,159.381443 L405.360825,159.381443 L405.360825,127.010309 L442.061856,127.010309 L445.876289,127.010309 L470.206186,170.927835 L472.268041,174.639175 C472.268041,174.639175 473.608247,177.319588 476.907216,177.319588 L482.371134,177.319588 L504.226804,177.319588 L508.865979,177.319588 C512.061856,177.319588 513.505155,174.639175 513.505155,174.639175 C515.360825,171.443299 513.402062,168.969072 513.402062,168.969072 Z M442.061856,93.7113402 L405.360825,93.7113402 L405.360825,34.1237113 L442.061856,34.1237113 C463.917526,34.1237113 476.494845,43.9175258 476.494845,63.6082474 C476.494845,83.7113402 463.917526,93.7113402 442.061856,93.7113402 Z" id="Shape" fill="#FFCD2E"></path>
                <path d="M250.412371,0 C200.927835,0 160.927835,40.1030928 160.927835,89.4845361 C160.927835,138.865979 201.030928,178.969072 250.412371,178.969072 C299.793814,178.969072 339.896907,138.865979 339.896907,89.4845361 C339.896907,40.1030928 299.793814,0 250.412371,0 Z M260.515464,151.340206 C252.783505,152.57732 249.896907,151.546392 249.793814,151.443299 C248.041237,150.515464 249.587629,149.484536 249.690722,149.484536 C250.309278,149.175258 251.237113,148.659794 252.783505,148.247423 C252.989691,148.14433 253.298969,148.14433 253.505155,148.041237 C253.505155,148.041237 253.608247,148.041237 253.608247,148.041237 L253.608247,148.041237 C255.463918,147.42268 257.938144,146.597938 260.412371,145.463918 L260.412371,145.463918 C273.402062,139.896907 282.989691,129.690722 287.731959,115.876289 C292.989691,100.618557 289.587629,82.8865979 279.381443,71.6494845 C270.618557,62.0618557 258.556701,58.556701 245.360825,61.8556701 C236.391753,64.0206186 228.14433,71.1340206 224.329897,80.1030928 C221.030928,87.7319588 221.443299,95.5670103 225.257732,102.371134 C228.969072,108.865979 236.391753,112.680412 243.608247,112.268041 L243.608247,112.268041 C260.927835,111.752577 260.103093,97.7319588 260.103093,97.7319588 C260.103093,97.4226804 260.103093,97.0103093 260,96.7010309 C260,96.7010309 260,96.7010309 260,96.7010309 L260,96.7010309 C259.484536,93.1958763 256.391753,90.4123711 252.783505,90.4123711 C248.762887,90.4123711 245.463918,93.7113402 245.463918,97.7319588 C245.463918,98.7628866 245.670103,99.6907216 246.082474,100.618557 L246.082474,100.618557 C246.082474,100.618557 246.082474,100.618557 246.082474,100.618557 C246.082474,100.618557 246.082474,100.721649 246.082474,100.721649 C246.185567,101.030928 246.701031,102.371134 245.56701,102.886598 C245.463918,102.886598 245.360825,102.989691 245.360825,102.989691 C245.360825,102.989691 245.360825,102.989691 245.257732,102.989691 L245.257732,102.989691 C245.051546,103.092784 244.845361,103.092784 244.536082,103.195876 C240.824742,104.020619 235.360825,102.268041 232.886598,97.9381443 C229.793814,92.4742268 230.927835,87.1134021 232.371134,83.6082474 C235.051546,77.3195876 241.030928,72.0618557 247.319588,70.5154639 C257.216495,68.1443299 266.28866,70.6185567 272.680412,77.7319588 C280.721649,86.5979381 283.402062,100.721649 279.175258,113.092784 C273.195876,130.618557 259.896907,137.216495 249.793814,139.690722 C242.474227,141.443299 234.639175,141.649485 227.010309,140.412371 C226.185567,140.309278 225.360825,140.103093 224.639175,140 C224.536082,140 224.329897,139.896907 224.226804,139.896907 C198.865979,134.226804 190.721649,109.175258 189.690722,105.670103 C189.690722,105.56701 189.690722,105.56701 189.690722,105.463918 C189.690722,105.360825 189.690722,105.360825 189.587629,105.257732 C188.350515,100.309278 187.628866,95.0515464 187.628866,89.6907216 C187.628866,55.1546392 215.773196,27.0103093 250.309278,27.0103093 C284.845361,27.0103093 312.989691,55.1546392 312.989691,89.6907216 C313.092784,120.618557 290.309278,146.494845 260.515464,151.340206 Z" id="Shape" fill="#005AA9"></path>
                <path d="M157.938144,169.072165 L157.938144,169.072165 C157.835052,168.969072 157.835052,168.969072 157.938144,169.072165 L156.28866,166.701031 L92.8865979,74.6391753 L149.278351,12.0618557 L149.278351,12.0618557 L151.237113,9.89690722 C152.061856,8.86597938 153.195876,6.59793814 151.752577,3.91752577 C150.412371,1.2371134 147.525773,1.13402062 147.113402,1.13402062 L147.113402,1.13402062 L144.226804,1.13402062 L121.237113,1.13402062 L115.463918,1.13402062 C113.608247,1.13402062 112.474227,1.95876289 111.85567,2.4742268 L110.309278,4.22680412 L110.309278,4.22680412 L110.309278,4.22680412 L39.7938144,81.1340206 L39.7938144,81.1340206 L39.7938144,70.3092784 L39.7938144,6.90721649 C39.7938144,3.81443299 37.1134021,1.13402062 34.0206186,1.13402062 L5.77319588,1.13402062 C2.37113402,1.13402062 0,3.81443299 0,6.90721649 L0,85.0515464 L0,95.4639175 L0,144.639175 L0,171.546392 C0,174.639175 2.37113402,177.319588 5.77319588,177.319588 L33.9175258,177.319588 C37.0103093,177.319588 39.6907216,174.639175 39.6907216,171.546392 L39.6907216,144.639175 L39.6907216,133.814433 L39.6907216,133.814433 L65.1546392,105.670103 L112.371134,172.57732 L112.371134,172.57732 L114.123711,175.051546 C114.123711,175.051546 114.123711,175.051546 114.123711,175.051546 L114.123711,175.051546 C114.226804,175.257732 114.742268,175.876289 115.257732,176.28866 C115.360825,176.28866 115.360825,176.391753 115.463918,176.391753 C115.463918,176.391753 115.56701,176.391753 115.56701,176.494845 C116.28866,176.907216 117.216495,177.319588 118.556701,177.319588 L124.43299,177.319588 L148.14433,177.319588 L152.371134,177.319588 C156.701031,177.319588 157.835052,174.948454 157.835052,174.948454 C159.587629,171.958763 158.247423,169.587629 157.938144,169.072165 Z" id="Shape" fill="#2EB4D2"></path>
            </g>
            <rect id="Rectangle-2" fill="#005AA9" x="30" y="30" width="50" height="50"></rect>
            <rect id="Rectangle-2" fill="#2EB4D2" x="90" y="30" width="50" height="50"></rect>
            <rect id="Rectangle-2" fill="#FFCD2E" x="150" y="30" width="50" height="50"></rect>
            <rect id="Rectangle-3" stroke="#DDDDDD" x="0.5" y="0.5" width="1499" height="999"></rect>
        </g>
    </g>
</svg>