<?xml version="1.0" encoding="UTF-8"?>
<svg width="1500px" height="1000px" viewBox="0 0 1500 1000" version="1.1" xmlns="http://www.w3.org/2000/svg" xmlns:xlink="http://www.w3.org/1999/xlink">
    <!-- Generator: Sketch 46.2 (44496) - http://www.bohemiancoding.com/sketch -->
    <title>Logo</title>
    <desc>Created with Sketch.</desc>
    <defs></defs>
    <g id="Page-1" stroke="none" stroke-width="1" fill="none" fill-rule="evenodd">
        <g id="Logo">
            <g id="tamed-logo" transform="translate(480.000000, 250.000000)" fill-rule="nonzero" fill="#1D1D1D">
                <path d="M59.1687042,293.031785 C62.9584352,293.031785 63.3251834,294.743276 63.3251834,298.288509 L63.3251834,358.801956 C63.3251834,368.581907 62.3471883,369.437653 50.3667482,369.559902 L50.3667482,372.616137 L92.7872861,372.616137 L92.7872861,369.559902 C80.806846,369.437653 79.8288509,368.581907 79.8288509,358.801956 L79.8288509,298.288509 C79.8288509,294.743276 80.3178484,293.031785 83.9853301,293.031785 C97.4327628,293.031785 106.356968,302.07824 112.469438,313.080685 L115.036675,312.347188 L110.02445,288.141809 L105.745721,288.141809 C104.767726,289.853301 101.589242,289.97555 99.5110024,289.97555 L43.5207824,289.97555 C41.3202934,289.97555 38.2640587,289.853301 37.2860636,288.141809 L33.007335,288.141809 L27.99511,312.347188 L30.5623472,313.080685 C36.6748166,302.200489 45.7212714,293.031785 59.1687042,293.031785 Z" id="Shape"></path>
                <path d="M103.667482,369.682152 L103.667482,372.738386 L130.317848,372.738386 L130.317848,369.682152 C123.594132,369.682152 120.415648,367.726161 120.415648,364.792176 C120.415648,363.447433 121.515892,359.9022 122.982885,356.479218 L126.528117,348.04401 L163.080685,348.04401 L167.237164,356.601467 C168.215159,358.679707 170.537897,362.469438 170.537897,365.036675 C170.537897,367.726161 168.215159,369.682152 160.391198,369.682152 L160.391198,372.738386 L200.488998,372.738386 L200.488998,369.682152 C193.398533,368.948655 190.953545,368.09291 187.775061,361.369193 L153.545232,290.831296 C152.567237,288.753056 152.322738,288.386308 151.711491,288.386308 C151.222494,288.386308 150.855746,288.630807 150.122249,289.608802 C147.066015,293.643032 143.154034,296.821516 139.486553,300.122249 C140.586797,300.611247 141.320293,302.444988 141.93154,303.91198 L120.537897,351.466993 C114.792176,364.180929 112.591687,367.726161 103.667482,369.682152 Z M143.887531,308.801956 L160.880196,344.132029 L127.99511,344.132029 L143.887531,308.801956 Z" id="Shape"></path>
                <path d="M312.469438,293.031785 L312.469438,289.97555 L283.251834,289.97555 L259.413203,349.022005 L235.330073,289.97555 L206.968215,289.97555 L206.968215,293.031785 C209.413203,293.276284 217.481663,293.398533 217.481663,297.066015 L217.481663,359.046455 C217.481663,365.892421 213.447433,369.315403 206.356968,369.682152 L206.356968,372.738386 L234.963325,372.738386 L234.963325,369.682152 C227.506112,369.682152 221.760391,367.237164 221.760391,359.046455 L221.760391,300.122249 L222.00489,300.122249 L251.833741,372.860636 L253.789731,372.860636 L283.98533,298.899756 L284.474328,298.899756 L284.474328,358.924205 C284.474328,368.704156 283.496333,369.559902 272.860636,369.682152 L272.860636,372.738386 L312.469438,372.738386 L312.469438,369.682152 C301.95599,369.559902 300.855746,368.704156 300.855746,358.924205 L300.855746,303.91198 C300.977995,294.132029 301.95599,293.154034 312.469438,293.031785 Z" id="Shape"></path>
                <path d="M325.672372,293.031785 C333.007335,293.154034 334.107579,294.00978 334.107579,303.789731 L334.107579,358.801956 C334.107579,368.581907 333.129584,369.437653 325.672372,369.559902 L325.672372,372.616137 L396.210269,372.616137 L402.567237,350 L400.122249,348.655257 C389.608802,363.447433 385.696822,369.559902 366.870416,369.559902 L354.889976,369.559902 C350.855746,369.559902 350.611247,368.459658 350.611247,363.93643 L350.611247,331.418093 L357.212714,331.418093 C374.205379,331.418093 380.440098,337.286064 381.662592,350.122249 L384.352078,350.122249 L384.352078,311.613692 L381.662592,311.613692 C380.440098,324.572127 368.704156,328.361858 357.212714,328.361858 L350.611247,328.361858 L350.611247,292.909535 L369.193154,292.909535 C381.418093,292.909535 388.264059,299.388753 398.655257,312.347188 L400.733496,311.491443 L392.05379,289.731051 L325.672372,289.731051 L325.672372,293.031785 Z" id="Shape"></path>
                <path d="M506.479218,331.418093 C506.479218,306.356968 484.718826,290.0978 460.880196,290.0978 L415.158924,290.0978 L415.158924,293.154034 C424.205379,293.276284 425.305623,294.132029 425.305623,303.91198 L425.305623,358.924205 C425.305623,368.704156 424.327628,369.559902 415.158924,369.682152 L415.158924,372.738386 L462.958435,372.738386 C487.897311,372.738386 506.479218,356.845966 506.479218,331.418093 Z M441.809291,358.924205 L441.809291,297.310513 C441.809291,293.887531 442.298289,293.154034 455.501222,293.154034 C476.161369,293.154034 488.875306,309.9022 488.875306,331.418093 C488.875306,353.056235 478.361858,369.682152 455.501222,369.682152 C443.643032,369.682152 441.564792,368.704156 441.809291,358.924205 Z" id="Shape"></path>
                <path d="M537.286064,425.183374 L1.58924205,425.183374 C0.733496333,425.183374 0,425.91687 0,426.772616 C0,427.628362 0.733496333,428.361858 1.58924205,428.361858 L537.286064,428.361858 C538.141809,428.361858 538.875306,427.628362 538.875306,426.772616 C538.997555,425.91687 538.264059,425.183374 537.286064,425.183374 Z" id="Shape"></path>
                <path d="M188.753056,56.2347188 C187.897311,57.2127139 187.163814,58.190709 186.308068,59.1687042 C186.185819,59.4132029 185.94132,59.5354523 185.819071,59.7799511 C185.207824,60.6356968 184.596577,61.4914425 183.98533,62.3471883 C183.863081,62.4694377 183.863081,62.591687 183.740831,62.7139364 C165.647922,89.7310513 175.305623,117.97066 179.217604,126.894866 C179.584352,127.750611 180.806846,129.339853 183.496333,127.383863 C183.618582,127.261614 183.863081,127.139364 183.98533,127.017115 C184.107579,126.894866 184.107579,126.894866 184.229829,126.772616 C188.01956,123.716381 191.564792,121.271394 193.520782,120.537897 C193.520782,120.537897 189.486553,127.872861 185.330073,138.141809 C184.596577,140.0978 181.90709,147.92176 183.007335,157.701711 C185.085575,174.449878 194.743276,186.797066 199.388753,191.93154 C199.388753,191.93154 199.388753,191.93154 199.388753,191.93154 C199.388753,191.93154 199.511002,192.05379 199.511002,192.05379 C200,192.542787 201.95599,194.132029 204.523227,190.709046 L204.523227,190.709046 C207.579462,186.430318 211.124694,182.640587 214.669927,179.339853 C212.591687,182.762836 211.246944,186.797066 210.880196,191.809291 C210.880196,191.809291 210.513447,196.821516 211.491443,206.601467 C211.735941,208.190709 212.713936,216.01467 215.525672,220.904645 C215.892421,221.515892 216.381418,222.127139 216.870416,222.860636 L216.870416,222.860636 C218.459658,225.061125 220.0489,227.017115 221.026895,227.628362 C221.149144,227.750611 221.393643,227.872861 221.515892,227.872861 C222.127139,227.872861 222.738386,227.139364 222.738386,226.161369 L222.738386,204.03423 C222.738386,204.03423 222.738386,204.03423 222.738386,204.03423 C222.738386,203.789731 222.738386,203.545232 222.738386,203.300733 C222.738386,199.633252 224.205379,196.210269 226.650367,193.765281 L226.650367,229.339853 C226.650367,230.317848 227.383863,231.051345 228.239609,231.051345 C229.095355,231.051345 229.828851,230.317848 229.828851,229.339853 L229.828851,191.320293 C230.929095,190.709046 232.151589,190.342298 233.374083,190.0978 L233.374083,232.273839 C233.374083,233.251834 234.107579,233.98533 234.963325,233.98533 C235.819071,233.98533 236.552567,233.251834 236.552567,232.273839 L236.552567,189.853301 C237.775061,189.853301 238.997555,190.0978 240.0978,190.464548 L240.0978,234.596577 C240.0978,235.574572 240.831296,236.308068 241.687042,236.308068 C242.542787,236.308068 243.276284,235.574572 243.276284,234.596577 L243.276284,193.031785 C244.498778,194.00978 245.599022,194.987775 246.821516,195.843521 L246.821516,237.163814 C246.821516,238.141809 247.555012,238.875306 248.410758,238.875306 C249.266504,238.875306 250,238.141809 250,237.163814 L250,198.410758 C251.222494,199.388753 252.322738,200.244499 253.545232,201.100244 L253.545232,238.630807 C253.545232,239.608802 254.278729,240.342298 255.134474,240.342298 C255.99022,240.342298 256.723716,239.608802 256.723716,238.630807 L256.723716,203.422983 C256.968215,203.545232 257.212714,203.789731 257.457213,203.91198 C258.190709,204.400978 259.168704,204.889976 260.268949,205.378973 L260.268949,239.731051 C260.268949,240.709046 261.002445,241.442543 261.858191,241.442543 C262.713936,241.442543 263.447433,240.709046 263.447433,239.731051 L263.447433,206.479218 C264.547677,206.723716 265.770171,206.968215 266.992665,207.090465 L266.992665,239.731051 C266.992665,240.709046 267.726161,241.442543 268.581907,241.442543 C269.437653,241.442543 270.171149,240.709046 270.171149,239.731051 L270.171149,207.090465 C271.271394,206.968215 272.493888,206.723716 273.716381,206.479218 L273.716381,239.731051 C273.716381,240.709046 274.449878,241.442543 275.305623,241.442543 C276.161369,241.442543 276.894866,240.709046 276.894866,239.731051 L276.894866,205.256724 C277.99511,204.767726 278.973105,204.156479 280.07335,203.422983 C280.195599,203.300733 280.317848,203.300733 280.317848,203.178484 L280.317848,238.508557 C280.317848,239.486553 281.051345,240.220049 281.90709,240.220049 C282.762836,240.220049 283.496333,239.486553 283.496333,238.508557 L283.496333,200.733496 C284.718826,199.877751 285.819071,198.899756 287.041565,198.04401 L287.041565,237.163814 C287.041565,238.141809 287.775061,238.875306 288.630807,238.875306 C289.486553,238.875306 290.220049,238.141809 290.220049,237.163814 L290.220049,195.476773 C291.442543,194.498778 292.542787,193.520782 293.765281,192.542787 L293.765281,234.596577 C293.765281,235.574572 294.498778,236.308068 295.354523,236.308068 C296.210269,236.308068 296.943765,235.574572 296.943765,234.596577 L296.943765,189.853301 C298.04401,189.486553 299.266504,189.242054 300.488998,189.242054 L300.488998,232.273839 C300.488998,233.251834 301.222494,233.98533 302.07824,233.98533 C302.933985,233.98533 303.667482,233.251834 303.667482,232.273839 L303.667482,189.486553 C304.889976,189.731051 306.112469,190.0978 307.212714,190.709046 L307.212714,229.339853 C307.212714,230.317848 307.94621,231.051345 308.801956,231.051345 C309.657702,231.051345 310.391198,230.317848 310.391198,229.339853 L310.391198,193.031785 C311.98044,194.621027 313.080685,196.454768 313.814181,198.655257 L313.814181,226.03912 C313.814181,227.017115 314.547677,227.750611 315.403423,227.750611 C315.403423,227.750611 315.525672,227.750611 315.525672,227.750611 C315.525672,227.750611 315.525672,227.750611 315.647922,227.750611 C315.770171,227.750611 315.892421,227.750611 316.01467,227.628362 C316.01467,227.628362 316.01467,227.628362 316.01467,227.628362 C316.01467,227.628362 316.01467,227.628362 316.136919,227.628362 C316.259169,227.506112 316.381418,227.506112 316.503667,227.383863 C316.503667,227.383863 316.503667,227.383863 316.503667,227.383863 C316.625917,227.261614 316.748166,227.139364 316.870416,227.017115 C323.349633,220.0489 324.572127,209.657702 324.816626,206.968215 C325.183374,200.733496 325.183374,196.577017 325.183374,196.577017 C325.550122,189.242054 323.96088,183.740831 321.882641,179.584352 C325.183374,182.640587 328.484108,186.06357 331.295844,189.97555 L331.295844,189.97555 C331.295844,189.97555 333.251834,193.031785 337.041565,190.586797 C337.286064,190.342298 337.652812,190.220049 337.897311,189.97555 C337.897311,189.97555 337.897311,189.97555 337.897311,189.97555 C346.332518,183.863081 362.836186,168.337408 357.457213,143.398533 C355.012225,135.574572 351.100244,127.628362 345.354523,120.537897 C345.354523,120.537897 350,123.594132 355.501222,127.628362 C355.623472,127.750611 358.190709,129.339853 359.413203,125.794621 C362.591687,116.748166 369.682152,92.5427873 360.757946,73.8386308 C360.513447,73.2273839 360.146699,72.7383863 359.9022,72.1271394 C359.779951,71.8826406 359.657702,71.7603912 359.535452,71.5158924 C357.334963,67.603912 354.889976,63.6919315 352.07824,59.9022005 C349.877751,51.3447433 346.699267,45.3545232 346.699267,45.3545232 C339.364303,31.5403423 326.894866,32.2738386 321.515892,33.2518337 C321.393643,30.0733496 320.415648,26.8948655 318.459658,23.4718826 C306.723716,3.42298289 287.163814,-2.200489 256.968215,2.44498778 C240.586797,4.88997555 230.440098,10.7579462 223.838631,16.7481663 L223.838631,16.7481663 C223.838631,16.7481663 223.838631,16.7481663 223.838631,16.7481663 C222.493888,17.9706601 221.149144,19.3154034 220.0489,20.5378973 C206.601467,32.8850856 187.775061,37.408313 180.317848,38.8753056 L180.317848,38.8753056 C180.317848,38.8753056 177.261614,39.3643032 178.606357,41.5647922 C180.684597,44.1320293 184.963325,48.4107579 191.93154,51.3447433 C191.564792,51.8337408 191.075795,52.4449878 190.709046,52.9339853 C190.586797,54.1564792 189.731051,55.1344743 188.753056,56.2347188 Z M283.98533,181.295844 C280.195599,184.718826 274.572127,189.242054 269.070905,192.665037 C269.070905,192.665037 262.836186,188.630807 256.601467,183.496333 C248.288509,177.139364 253.789731,171.638142 254.645477,170.904645 C256.845966,169.070905 259.657702,167.237164 263.080685,166.136919 C263.202934,166.136919 263.202934,166.136919 263.325183,166.01467 C263.325183,166.01467 263.325183,166.01467 263.325183,166.01467 C264.792176,165.525672 266.259169,165.281174 267.726161,165.158924 L267.726161,165.158924 C267.726161,165.158924 277.506112,164.303178 284.963325,171.760391 C286.552567,173.471883 288.875306,177.261614 283.98533,181.295844 Z M333.007335,46.5770171 C340.464548,50.8557457 342.420538,56.7237164 343.031785,58.6797066 C343.031785,58.6797066 332.273839,50.3667482 315.403423,54.400978 C315.403423,54.400978 325.427873,42.2982885 333.007335,46.5770171 Z M299.633252,31.0513447 C301.466993,38.1418093 299.633252,43.2762836 296.821516,46.9437653 L296.821516,46.9437653 C296.821516,46.9437653 295.232274,49.2665037 297.066015,48.2885086 C308.06846,40.9535452 310.635697,30.0733496 310.635697,30.0733496 C314.547677,52.3227384 287.897311,53.9119804 287.897311,53.9119804 C294.743276,47.1882641 294.376528,38.6308068 294.376528,38.6308068 C293.398533,23.3496333 275.672372,12.591687 275.672372,12.591687 C275.672372,12.591687 296.08802,16.992665 299.633252,31.0513447 Z M243.887531,34.4743276 C264.547677,20.5378973 280.684597,46.3325183 280.684597,46.3325183 C277.383863,43.8875306 261.369193,34.1075795 241.198044,45.8435208 C221.149144,57.4572127 208.312958,49.6332518 208.312958,49.6332518 C220.537897,48.4107579 223.227384,48.4107579 243.887531,34.4743276 Z M217.603912,74.3276284 C219.437653,71.8826406 221.638142,69.9266504 224.08313,68.2151589 C242.665037,57.5794621 254.400978,63.4474328 254.400978,63.4474328 L254.400978,63.4474328 C259.168704,66.3814181 273.471883,68.8264059 287.408313,64.1809291 C302.567237,59.1687042 319.193154,67.8484108 331.173594,83.4963325 C340.342298,95.4767726 333.007335,114.180929 329.095355,122.249389 C327.261614,126.161369 324.205379,124.694377 323.716381,124.449878 L320.537897,122.616137 C324.449878,136.919315 317.237164,151.711491 310.146699,162.224939 C306.601467,167.237164 302.07824,164.425428 302.07824,164.425428 L302.07824,164.425428 C291.075795,157.823961 281.418093,155.623472 276.528117,155.012225 L276.528117,155.012225 C276.528117,155.012225 272.982885,154.645477 272.982885,152.567237 L272.982885,149.388753 C272.982885,149.388753 273.105134,148.655257 273.838631,147.799511 L286.797066,134.229829 C290.464548,130.317848 290.220049,126.772616 290.220049,126.283619 L286.430318,95.7212714 C289.486553,94.3765281 292.420538,93.5207824 295.354523,93.0317848 C307.090465,92.2982885 313.814181,95.599022 315.281174,96.4547677 C315.281174,96.4547677 315.281174,96.4547677 315.281174,96.4547677 C315.403423,96.5770171 315.525672,96.5770171 315.525672,96.5770171 L315.525672,96.5770171 C315.770171,96.6992665 316.01467,96.8215159 316.259169,96.8215159 L316.259169,96.8215159 C316.259169,96.8215159 316.381418,96.8215159 316.503667,96.8215159 C316.503667,96.8215159 316.503667,96.8215159 316.503667,96.8215159 C316.503667,96.8215159 316.503667,96.8215159 316.625917,96.8215159 C317.114914,96.8215159 317.848411,96.6992665 318.337408,95.9657702 C318.337408,95.9657702 318.337408,95.9657702 318.337408,95.9657702 C318.337408,95.8435208 318.459658,95.8435208 318.459658,95.7212714 L318.459658,95.7212714 C318.704156,95.3545232 318.826406,94.8655257 318.826406,94.3765281 C318.826406,93.6430318 318.459658,92.9095355 317.97066,92.5427873 C317.848411,92.4205379 317.726161,92.2982885 317.481663,92.2982885 C317.237164,92.1760391 315.525672,91.3202934 313.569682,90.7090465 C299.633252,85.6968215 287.530562,90.2200489 283.129584,92.2982885 C282.885086,92.4205379 281.418093,93.2762836 281.540342,95.3545232 L283.618582,125.91687 C283.740831,127.383863 282.640587,127.750611 282.02934,127.750611 L281.662592,127.750611 L256.723716,127.750611 C254.400978,127.750611 254.523227,126.161369 254.523227,125.91687 L256.601467,94.6210269 C256.601467,94.00978 256.479218,93.5207824 256.234719,93.0317848 C255.867971,92.4205379 255.256724,92.0537897 254.889976,91.809291 C238.875306,85.0855746 226.650367,88.5085575 219.92665,91.809291 C219.804401,91.9315403 219.559902,91.9315403 219.437653,92.0537897 C218.826406,92.5427873 218.459658,93.1540342 218.459658,94.00978 C218.459658,95.3545232 219.559902,96.3325183 220.782396,96.3325183 C220.904645,96.3325183 220.904645,96.3325183 221.026895,96.3325183 C221.271394,96.2102689 222.493888,95.8435208 223.594132,95.3545232 L223.594132,95.3545232 C225.061125,94.7432763 227.017115,94.00978 228.606357,93.6430318 C234.352078,92.1760391 242.909535,91.4425428 251.95599,95.4767726 L248.288509,127.017115 C248.288509,127.017115 248.04401,130.07335 250.366748,132.762836 L250.366748,132.762836 L263.691932,147.677262 C263.691932,147.677262 264.303178,148.410758 264.303178,149.266504 L264.303178,152.444988 C264.303178,152.444988 264.425428,154.400978 260.635697,154.889976 L260.635697,154.889976 C255.867971,155.501222 246.699267,157.579462 236.185819,163.691932 L236.185819,163.691932 C232.396088,165.770171 230.806846,162.958435 230.806846,162.958435 L230.806846,162.958435 C228.361858,159.046455 225.550122,154.889976 222.493888,150.733496 C213.691932,138.753056 219.315403,120.660147 219.315403,120.660147 L214.914425,123.227384 C212.347188,124.694377 211.246944,123.349633 211.002445,122.860636 C197.677262,93.0317848 207.212714,87.7750611 217.603912,74.3276284 Z" id="Shape"></path>
                <polygon id="Shape" points="177.017115 487.775061 189.486553 487.775061 189.486553 483.863081 177.017115 483.863081 177.017115 477.017115 190.831296 477.017115 190.831296 472.860636 172.616137 472.860636 172.616137 498.899756 191.320293 498.899756 191.320293 494.743276 177.017115 494.743276"></polygon>
                <path d="M210.635697,483.740831 C207.94621,483.129584 206.234719,482.518337 205.378973,481.90709 C204.523227,481.295844 204.156479,480.562347 204.156479,479.462103 C204.156479,478.361858 204.523227,477.628362 205.378973,477.139364 C206.234719,476.650367 207.212714,476.405868 208.557457,476.405868 C209.779951,476.405868 211.124694,476.650367 212.469438,477.017115 C213.814181,477.506112 214.792176,477.99511 215.647922,478.728606 L217.97066,475.427873 C216.748166,474.449878 215.403423,473.716381 213.691932,473.105134 C212.102689,472.616137 210.391198,472.249389 208.801956,472.249389 C206.234719,472.249389 204.03423,472.860636 202.322738,474.205379 C200.611247,475.550122 199.755501,477.383863 199.755501,479.828851 C199.755501,482.273839 200.488998,483.98533 202.07824,485.207824 C202.811736,485.819071 203.667482,486.308068 204.767726,486.674817 C205.745721,487.041565 207.212714,487.530562 209.168704,487.897311 C211.124694,488.386308 212.469438,488.875306 213.202934,489.364303 C213.93643,489.97555 214.425428,490.709046 214.425428,491.687042 C214.425428,492.665037 214.05868,493.520782 213.202934,494.132029 C212.347188,494.743276 211.246944,494.987775 209.779951,494.987775 C206.968215,494.987775 204.278729,493.887531 201.589242,491.564792 L198.777506,494.865526 C201.95599,497.677262 205.501222,499.022005 209.657702,499.022005 C212.469438,499.022005 214.669927,498.288509 216.381418,496.943765 C218.09291,495.476773 218.948655,493.643032 218.948655,491.442543 C218.948655,489.119804 218.215159,487.408313 216.870416,486.308068 C215.281174,485.207824 213.325183,484.352078 210.635697,483.740831 Z" id="Shape"></path>
                <polygon id="Shape" points="225.305623 476.894866 233.251834 476.894866 233.251834 498.899756 237.652812 498.899756 237.652812 476.894866 245.476773 476.894866 245.476773 472.860636 225.305623 472.860636"></polygon>
                <path d="M255.623472,493.643032 C254.889976,493.643032 254.156479,493.887531 253.667482,494.498778 C253.178484,494.987775 252.811736,495.721271 252.811736,496.454768 C252.811736,497.188264 253.056235,497.92176 253.667482,498.410758 C254.156479,498.899756 254.889976,499.266504 255.623472,499.266504 C256.356968,499.266504 257.090465,499.022005 257.579462,498.410758 C258.06846,497.92176 258.435208,497.188264 258.435208,496.454768 C258.435208,495.721271 258.190709,494.987775 257.579462,494.498778 C257.090465,493.887531 256.356968,493.643032 255.623472,493.643032 Z" id="Shape"></path>
                <polygon id="Shape" points="279.584352 476.772616 284.841076 476.772616 284.841076 498.899756 288.997555 498.899756 288.997555 472.860636 279.584352 472.860636"></polygon>
                <path d="M307.212714,472.371638 C304.645477,472.371638 302.444988,473.105134 300.733496,474.694377 C299.022005,476.283619 298.166259,478.361858 298.166259,480.929095 C298.166259,483.496333 298.899756,485.574572 300.488998,487.163814 C302.07824,488.753056 304.03423,489.486553 306.356968,489.486553 C307.823961,489.486553 309.046455,489.242054 310.268949,488.630807 C311.491443,488.01956 312.347188,487.408313 312.958435,486.674817 C312.958435,489.364303 312.347188,491.442543 311.246944,493.031785 C310.146699,494.621027 308.435208,495.354523 306.112469,495.354523 C305.378973,495.354523 304.523227,495.110024 303.545232,494.743276 C302.567237,494.376528 301.833741,493.887531 301.222494,493.398533 L299.022005,496.577017 C301.344743,498.288509 303.91198,499.266504 306.723716,499.266504 C309.535452,499.266504 311.858191,498.288509 313.814181,496.210269 C314.792176,495.110024 315.647922,493.765281 316.136919,491.93154 C316.748166,490.0978 316.992665,487.897311 316.992665,485.207824 C316.992665,482.518337 316.503667,480.07335 315.647922,477.99511 C314.303178,474.327628 311.369193,472.371638 307.212714,472.371638 Z M310.757946,484.352078 C309.779951,485.207824 308.557457,485.574572 306.968215,485.574572 C305.501222,485.574572 304.278729,485.085575 303.422983,484.229829 C302.567237,483.251834 302.07824,482.151589 302.07824,480.806846 C302.07824,479.462103 302.567237,478.361858 303.545232,477.506112 C304.523227,476.650367 305.745721,476.283619 307.090465,476.283619 C308.557457,476.283619 309.779951,476.772616 310.757946,477.750611 C311.735941,478.728606 312.224939,479.828851 312.224939,481.173594 C312.347188,482.396088 311.858191,483.496333 310.757946,484.352078 Z" id="Shape"></path>
                <path d="M337.408313,488.508557 C339.242054,486.552567 340.586797,485.085575 341.198044,483.863081 C341.93154,482.640587 342.298289,481.418093 342.298289,480.07335 C342.298289,477.628362 341.442543,475.794621 339.853301,474.449878 C338.264059,473.105134 336.308068,472.371638 334.107579,472.371638 C331.90709,472.371638 330.195599,472.860636 328.728606,473.716381 C327.383863,474.572127 326.03912,475.91687 324.938875,477.628362 L328.484108,479.706601 C329.9511,477.506112 331.662592,476.405868 333.863081,476.405868 C335.085575,476.405868 336.06357,476.772616 336.919315,477.506112 C337.775061,478.239609 338.141809,479.095355 338.141809,480.195599 C338.141809,481.295844 337.775061,482.273839 337.041565,483.251834 C336.308068,484.229829 335.085575,485.696822 333.251834,487.408313 L325.305623,495.354523 L325.305623,499.022005 L343.154034,499.022005 L343.154034,494.865526 L331.295844,494.865526 L337.408313,488.508557 Z" id="Shape"></path>
                <path d="M359.535452,482.396088 C358.190709,482.396088 356.845966,482.640587 355.867971,483.251834 L355.867971,476.894866 L366.870416,476.894866 L366.870416,472.860636 L351.95599,472.860636 L351.95599,485.330073 L353.789731,487.286064 C355.256724,486.430318 356.845966,486.06357 358.557457,486.06357 C360.146699,486.06357 361.613692,486.430318 362.591687,487.286064 C363.691932,488.01956 364.180929,489.119804 364.180929,490.586797 C364.180929,492.05379 363.691932,493.154034 362.713936,493.887531 C361.735941,494.621027 360.513447,494.987775 359.290954,494.987775 C358.06846,494.987775 356.968215,494.743276 355.867971,494.254279 C354.767726,493.765281 354.156479,493.398533 353.789731,493.154034 C353.422983,492.909535 353.178484,492.665037 352.933985,492.420538 L350.611247,495.599022 C352.689487,497.92176 355.501222,499.144254 358.924205,499.144254 C361.613692,499.144254 363.814181,498.288509 365.647922,496.699267 C367.481663,494.987775 368.459658,493.031785 368.459658,490.464548 C368.459658,487.897311 367.603912,485.94132 365.770171,484.474328 C364.05868,483.129584 361.98044,482.396088 359.535452,482.396088 Z" id="Shape"></path>
            </g>
            <rect id="Rectangle-2" fill="#1D1D1D" x="30" y="30" width="50" height="50"></rect>
            <rect id="Rectangle-3" stroke="#DDDDDD" x="0.5" y="0.5" width="1499" height="999"></rect>
        </g>
    </g>
</svg>